<svg width="20" height="20" viewBox="0 0 20 20" fill="none" xmlns="http://www.w3.org/2000/svg">
<path d="M15 15C16.3807 15 17.5 13.8807 17.5 12.5C17.5 11.1193 16.3807 10 15 10C13.6193 10 12.5 11.1193 12.5 12.5C12.5 13.8807 13.6193 15 15 15Z" stroke="#8A8A8A" stroke-width="1.66587" stroke-linecap="round" stroke-linejoin="round"/>
<path d="M7.49984 9.16667C9.34079 9.16667 10.8332 7.67428 10.8332 5.83333C10.8332 3.99238 9.34079 2.5 7.49984 2.5C5.65889 2.5 4.1665 3.99238 4.1665 5.83333C4.1665 7.67428 5.65889 9.16667 7.49984 9.16667Z" stroke="#8A8A8A" stroke-width="1.66587" stroke-linecap="round" stroke-linejoin="round"/>
<path d="M8.33317 12.5H4.99984C4.11578 12.5 3.26794 12.8512 2.64281 13.4763C2.01769 14.1014 1.6665 14.9493 1.6665 15.8333V17.5" stroke="#8A8A8A" stroke-width="1.66587" stroke-linecap="round" stroke-linejoin="round"/>
<path d="M18.0831 13.6666L17.3335 13.4167" stroke="#8A8A8A" stroke-width="1.66587" stroke-linecap="round" stroke-linejoin="round"/>
<path d="M12.6661 11.5831L11.9165 11.3333" stroke="#8A8A8A" stroke-width="1.66587" stroke-linecap="round" stroke-linejoin="round"/>
<path d="M13.8335 15.5829L14.0834 14.8333" stroke="#8A8A8A" stroke-width="1.66587" stroke-linecap="round" stroke-linejoin="round"/>
<path d="M15.9165 10.1664L16.1664 9.41675" stroke="#8A8A8A" stroke-width="1.66587" stroke-linecap="round" stroke-linejoin="round"/>
<path d="M16.3332 15.5829L16 14.75" stroke="#8A8A8A" stroke-width="1.66587" stroke-linecap="round" stroke-linejoin="round"/>
<path d="M13.9997 10.2497L13.6665 9.41675" stroke="#8A8A8A" stroke-width="1.66587" stroke-linecap="round" stroke-linejoin="round"/>
<path d="M11.9165 13.8332L12.7494 13.5" stroke="#8A8A8A" stroke-width="1.66587" stroke-linecap="round" stroke-linejoin="round"/>
<path d="M17.25 11.4999L18.0829 11.1667" stroke="#8A8A8A" stroke-width="1.66587" stroke-linecap="round" stroke-linejoin="round"/>
</svg>
